<svg xmlns="http://www.w3.org/2000/svg" width="351" height="57" fill="none"><path fill="#FED7AA" fill-rule="evenodd" d="M231.22 4.64c-2.743 3.312-.313 6.116 5.842 6.738 3.189.321 6.141.078 6.562-.541.42-.62 2.805-.354 5.299.588 3.973 1.503 4.702 1.411 5.901-.733 1.24-2.219 1.647-2.25 4.367-.343 2.324 1.63 7.851 2.162 24.528 2.36 17.129.203 19.26.415 10.435 1.041l-11.091.788 11.784 1.118c6.481.613 18.022 1.298 25.647 1.52 10.993.32 15.094 1.033 19.804 3.448 3.268 1.677 5.568 3.653 5.11 4.394-.457.74.613 1.928 2.378 2.636 3.157 1.268 3.147 1.29-.57 1.378-3.491.08-3.711.42-2.899 4.487.763 3.818.553 4.274-1.588 3.45-2.011-.772-2.321-.391-1.681 2.063 1.075 4.117-2.451 10.446-7.185 12.898-9.211 4.772-28.355 5.734-59.118 2.972-5.597-.503-7.412-.332-5.546.525 2.207 1.012 1.559 1.291-3.188 1.369-3.278.053-7.833-.872-10.121-2.058-2.749-1.423-9.901-2.43-21.073-2.966-9.301-.446-18.13-1.44-19.619-2.21-1.906-.986-2.862-.929-3.235.19-.623 1.872-8.615 2.17-8.615.319 0-.698-1.899-.55-4.222.327-3.375 1.276-4.455 1.217-5.391-.301-.839-1.358-2.494-1.604-5.83-.867-5.125 1.132-5.813 1.13-52.16-.088-22.493-.592-34.286-.36-38.981.767-5.155 1.24-8.802 1.23-15.578-.043-4.867-.912-11.943-1.612-15.725-1.555-3.782.058-7.638-.528-8.57-1.303-.931-.773-5.827-1.994-10.879-2.71-5.051-.717-10.99-2.238-13.196-3.38-2.206-1.143-5.758-2.084-7.891-2.09-3.93-.014-14.922-5.815-21.142-11.157-2.68-2.303-3.086-3.408-1.927-5.248 1.081-1.718.93-3.153-.577-5.455-1.935-2.96-1.856-3.125 1.5-3.125 3.96 0 6.052-2.092 3.369-3.369-.958-.455-.182-.484 1.725-.064 5.958 1.313 13.252 2.108 11.437 1.248-3.263-1.55-1.73-3.04 4.827-4.694 4.701-1.186 16.783-1.417 42.63-.813 19.84.463 55.098.317 78.354-.325 23.256-.641 42.877-.662 43.601-.047.725.617 5.841 1.12 11.368 1.12 8.103 0 10.33.472 11.484 2.431 1.309 2.218 1.51 2.157 2.311-.694.658-2.343 1.964-3.16 5.221-3.264 2.389-.076 5.904-.639 7.81-1.25 5.218-1.673 6.039-1.574 4.304.518Zm-9.295 6.055c-.458-.458-.344-1.625.254-2.593.873-1.416 1.2-1.416 1.669-.005.671 2.013-.682 3.841-1.923 2.598Z" clip-rule="evenodd"/><path fill="#FED7AA" d="M250.137 5.14c.394 1.201-1.123 1.615-5.084 1.389-3.563-.204-5.649-.996-5.653-2.143-.01-2.363 9.944-1.665 10.737.754ZM269.515 2.292c.811 2.44-5.071 5.26-6.98 3.348-1.096-1.098-.822-1.518.99-1.518 1.708 0 2.239-.694 1.668-2.184-.582-1.522-.137-2.048 1.471-1.736 1.268.247 2.551 1.187 2.851 2.09ZM288.288 5.033c-.939.38-2.81.404-4.159.052-1.349-.353-.581-.664 1.707-.692 2.287-.028 3.391.26 2.452.64ZM305.244 4.122c.472.764.196 1.389-.611 1.389-.807 0-1.468-.625-1.468-1.389 0-.763.274-1.388.611-1.388.337 0 .997.625 1.468 1.388ZM330.207 3.635l2.407 3.679-4.5-.902c-2.475-.495-6.606-.901-9.179-.901-2.573 0-4.679-.548-4.679-1.218 0-.67 2.91-.89 6.466-.489 5.601.634 6.348.425 5.588-1.558-1.381-3.606 1.241-2.672 3.897 1.389ZM336.091 13.411c-1.335.35-3.517.35-4.852 0-1.336-.348-.243-.634 2.426-.634 2.668 0 3.761.286 2.426.634Z"/></svg>
