<?xml version="1.0" encoding="UTF-8" standalone="no"?>
<svg width="22px" height="22px" viewBox="0 0 22 22" version="1.1" xmlns="http://www.w3.org/2000/svg" xmlns:xlink="http://www.w3.org/1999/xlink" xmlns:sketch="http://www.bohemiancoding.com/sketch/ns">
    <!-- Generator: Sketch 3.3.3 (12072) - http://www.bohemiancoding.com/sketch -->
    <title>instagram</title>
    <desc>Created with Sketch.</desc>
    <defs></defs>
    <g id="Page-1" stroke="none" stroke-width="1" fill="none" fill-rule="evenodd" sketch:type="MSPage">
        <g id="Desktop" sketch:type="MSArtboardGroup" transform="translate(-138.000000, -463.000000)" fill="#8C969C">
            <path d="M157.507812,481.591146 C157.507812,482.078126 157.121094,482.464844 156.634115,482.464844 L141.322917,482.464844 C140.835937,482.464844 140.449219,482.078126 140.449219,481.591146 L140.449219,472.309896 L142.46875,472.309896 C142.282552,472.897135 142.182292,473.541667 142.182292,474.186198 C142.182292,477.852865 145.247396,480.817709 149.014323,480.817709 C152.795573,480.817709 155.860677,477.852865 155.860677,474.186198 C155.860677,473.541667 155.760417,472.897135 155.574219,472.309896 L157.507812,472.309896 L157.507812,481.591146 Z M153.440105,473.957031 C153.440105,476.320313 151.463542,478.239583 149.014323,478.239583 C146.579427,478.239583 144.602865,476.320313 144.602865,473.957031 C144.602865,471.59375 146.579427,469.67448 149.014323,469.67448 C151.463542,469.67448 153.440105,471.59375 153.440105,473.957031 L153.440105,473.957031 Z M157.507812,468.800781 C157.507812,469.345052 157.063803,469.789062 156.519531,469.789062 L154.027344,469.789062 C153.483073,469.789062 153.039063,469.345052 153.039063,468.800781 L153.039063,466.4375 C153.039063,465.893229 153.483073,465.449219 154.027344,465.449219 L156.519531,465.449219 C157.063803,465.449219 157.507812,465.893229 157.507812,466.4375 L157.507812,468.800781 Z M160,465.821615 C160,464.274739 158.725261,463 157.178385,463 L140.821615,463 C139.274739,463 138,464.274739 138,465.821615 L138,482.178385 C138,483.725261 139.274739,485 140.821615,485 L157.178385,485 C158.725261,485 160,483.725261 160,482.178385 L160,465.821615 Z" id="instagram" sketch:type="MSShapeGroup"></path>
        </g>
    </g>
</svg>