<?xml version="1.0" encoding="UTF-8" standalone="no"?>
<svg width="68px" height="23px" viewBox="0 0 68 23" version="1.1" xmlns="http://www.w3.org/2000/svg" xmlns:xlink="http://www.w3.org/1999/xlink" xmlns:sketch="http://www.bohemiancoding.com/sketch/ns">
    <!-- Generator: Sketch 3.3.3 (12072) - http://www.bohemiancoding.com/sketch -->
    <title>logo</title>
    <desc>Created with Sketch.</desc>
    <defs></defs>
    <g id="Page-1" stroke="none" stroke-width="1" fill="none" fill-rule="evenodd" sketch:type="MSPage">
        <g id="Desktop" sketch:type="MSArtboardGroup" transform="translate(-80.000000, -46.000000)">
            <g id="logo" sketch:type="MSLayerGroup" transform="translate(80.000000, 46.000000)">
                <rect id="Rectangle-1" fill="#7AC4E3" sketch:type="MSShapeGroup" x="0" y="21" width="68" height="2"></rect>
                <path d="M1.854,0.192 L5.094,0.192 C5.694003,0.192 6.24299751,0.24599946 6.741,0.354 C7.23900249,0.46200054 7.66499823,0.62999886 8.019,0.858 C8.37300177,1.08600114 8.64899901,1.38299817 8.847,1.749 C9.04500099,2.11500183 9.144,2.55599742 9.144,3.072 C9.144,3.66000294 8.97300171,4.19099763 8.631,4.665 C8.28899829,5.13900237 7.77000348,5.4659991 7.074,5.646 L7.074,5.718 C7.93800432,5.85000066 8.6099976,6.14999766 9.09,6.618 C9.5700024,7.08600234 9.81,7.72799592 9.81,8.544 C9.81,9.12000288 9.70200108,9.62399784 9.486,10.056 C9.26999892,10.4880022 8.96700195,10.8479986 8.577,11.136 C8.18699805,11.4240014 7.71900273,11.6399993 7.173,11.784 C6.62699727,11.9280007 6.0240033,12 5.364,12 L1.854,12 L1.854,0.192 Z M4.842,5.232 C5.85000504,5.232 6.57299781,5.05800174 7.011,4.71 C7.44900219,4.36199826 7.668,3.8580033 7.668,3.198 C7.668,2.54999676 7.43700231,2.08500141 6.975,1.803 C6.51299769,1.52099859 5.82600456,1.38 4.914,1.38 L3.366,1.38 L3.366,5.232 L4.842,5.232 Z M5.148,10.812 C6.1680051,10.812 6.95399724,10.6230019 7.506,10.245 C8.05800276,9.86699811 8.334,9.27600402 8.334,8.472 C8.334,7.73999634 8.0640027,7.20300171 7.524,6.861 C6.9839973,6.51899829 6.19200522,6.348 5.148,6.348 L3.366,6.348 L3.366,10.812 L5.148,10.812 Z M18.446,7.194 L17.888,5.394 C17.683999,4.7339967 17.486001,4.07700327 17.294,3.423 C17.101999,2.76899673 16.910001,2.10000342 16.718,1.416 L16.646,1.416 C16.453999,2.10000342 16.262001,2.76899673 16.07,3.423 C15.877999,4.07700327 15.680001,4.7339967 15.476,5.394 L14.918,7.194 L18.446,7.194 Z M18.824,8.4 L14.54,8.4 L13.406,12 L11.876,12 L15.854,0.192 L17.546,0.192 L21.524,12 L19.94,12 L18.824,8.4 Z M24.364,0.192 L25.876,0.192 L25.876,6.114 L25.93,6.114 L30.898,0.192 L32.59,0.192 L28.864,4.692 L33.022,12 L31.348,12 L27.928,5.862 L25.876,8.256 L25.876,12 L24.364,12 L24.364,0.192 Z M35.664,0.192 L37.176,0.192 L37.176,6.114 L37.23,6.114 L42.198,0.192 L43.89,0.192 L40.164,4.692 L44.322,12 L42.648,12 L39.228,5.862 L37.176,8.256 L37.176,12 L35.664,12 L35.664,0.192 Z M47.27,0.192 L54.56,0.192 L54.56,1.452 L48.782,1.452 L48.782,5.16 L53.66,5.16 L53.66,6.438 L48.782,6.438 L48.782,10.722 L54.74,10.722 L54.74,12 L47.27,12 L47.27,0.192 Z M59.794,5.79 L61.756,5.79 C62.6800046,5.79 63.3849976,5.60100189 63.871,5.223 C64.3570024,4.84499811 64.6,4.27200384 64.6,3.504 C64.6,2.7239961 64.3570024,2.17800156 63.871,1.866 C63.3849976,1.55399844 62.6800046,1.398 61.756,1.398 L59.794,1.398 L59.794,5.79 Z M64.744,12 L61.9,7.014 L59.794,7.014 L59.794,12 L58.3,12 L58.3,0.192 L61.972,0.192 C62.572003,0.192 63.1239975,0.24899943 63.628,0.363 C64.1320025,0.47700057 64.5669982,0.66599868 64.933,0.93 C65.2990018,1.19400132 65.583999,1.5359979 65.788,1.956 C65.992001,2.3760021 66.094,2.89199694 66.094,3.504 C66.094,4.42800462 65.8540024,5.16599724 65.374,5.718 C64.8939976,6.27000276 64.252004,6.64799898 63.448,6.852 L66.454,12 L64.744,12 Z" id="BAKKER" fill="#8C969C" sketch:type="MSShapeGroup"></path>
            </g>
        </g>
    </g>
</svg>