<?xml version="1.0" encoding="UTF-8" standalone="no"?>
<svg width="23px" height="22px" viewBox="0 0 23 22" version="1.1" xmlns="http://www.w3.org/2000/svg" xmlns:xlink="http://www.w3.org/1999/xlink" xmlns:sketch="http://www.bohemiancoding.com/sketch/ns">
    <!-- Generator: Sketch 3.3.3 (12072) - http://www.bohemiancoding.com/sketch -->
    <title>mail</title>
    <desc>Created with Sketch.</desc>
    <defs></defs>
    <g id="Page-1" stroke="none" stroke-width="1" fill="none" fill-rule="evenodd" sketch:type="MSPage">
        <g id="Desktop" sketch:type="MSArtboardGroup" transform="translate(-190.000000, -463.000000)" fill="#8C969C">
            <path d="M212.569461,463.135045 C212.446693,463.049107 212.287095,463 212.127497,463 C211.992452,463 211.857407,463.03683 211.73464,463.110491 L191.306068,474.896205 C191.048256,475.043527 190.900934,475.325893 190.913211,475.620536 C190.937765,475.927455 191.121917,476.185268 191.404283,476.295759 L196.253613,478.284598 L209.377496,466.928571 L198.770354,479.929687 L198.770354,484.214286 C198.770354,484.545758 198.979059,484.840401 199.285979,484.950892 C199.371916,484.987723 199.470131,485 199.556068,485 C199.789327,485 200.010309,484.901786 200.157631,484.717634 L203.128613,481.095982 L208.689996,483.367187 C208.788211,483.404018 208.886425,483.428571 208.98464,483.428571 C209.119685,483.428571 209.254729,483.391741 209.36522,483.330357 C209.573925,483.207589 209.721247,483.011161 209.758077,482.777901 L212.900934,463.920759 C212.950041,463.613839 212.827273,463.319196 212.569461,463.135045 L212.569461,463.135045 Z" id="mail" sketch:type="MSShapeGroup"></path>
        </g>
    </g>
</svg>