<?xml version="1.0" encoding="UTF-8" standalone="no"?>
<svg width="27px" height="22px" viewBox="0 0 27 22" version="1.1" xmlns="http://www.w3.org/2000/svg" xmlns:xlink="http://www.w3.org/1999/xlink" xmlns:sketch="http://www.bohemiancoding.com/sketch/ns">
    <!-- Generator: Sketch 3.3.3 (12072) - http://www.bohemiancoding.com/sketch -->
    <title>twitter</title>
    <desc>Created with Sketch.</desc>
    <defs></defs>
    <g id="Page-1" stroke="none" stroke-width="1" fill="none" fill-rule="evenodd" sketch:type="MSPage">
        <g id="Desktop" sketch:type="MSArtboardGroup" transform="translate(-80.000000, -463.000000)" fill="#8C969C">
            <path d="M107.0875,465.6125 C106.090625,466.042187 105.007813,466.351563 103.890625,466.471876 C105.042187,465.784375 105.91875,464.701562 106.33125,463.4125 C105.265625,464.048438 104.0625,464.5125 102.807812,464.753125 C101.79375,463.670313 100.35,463 98.7515628,463 C95.6749996,463 93.1999998,465.492187 93.1999998,468.551563 C93.1999998,468.98125 93.251562,469.410937 93.3375001,469.823437 C88.7312496,469.582812 84.6234379,467.382812 81.8906249,464.014062 C81.4093755,464.839063 81.134375,465.784375 81.134375,466.815625 C81.134375,468.740625 82.1140623,470.442188 83.6093748,471.439063 C82.6984371,471.404688 81.8390627,471.146875 81.1000002,470.734375 L81.1000002,470.803126 C81.1000002,473.501563 83.0078125,475.735938 85.551563,476.251563 C85.0874999,476.371875 84.5890621,476.440626 84.0906253,476.440626 C83.7296877,476.440626 83.3859375,476.40625 83.0421873,476.354687 C83.7468751,478.554688 85.7921877,480.153125 88.2328127,480.204688 C86.3250004,481.7 83.9359376,482.576562 81.3406249,482.576562 C80.8765628,482.576562 80.4468746,482.559375 80,482.507813 C82.4578124,484.089062 85.3796879,485 88.5249997,485 C98.7343754,485 104.320312,476.54375 104.320312,469.204688 C104.320312,468.964063 104.320312,468.723437 104.303125,468.482812 C105.385937,467.692188 106.33125,466.7125 107.0875,465.6125 L107.0875,465.6125 Z" id="twitter" sketch:type="MSShapeGroup"></path>
        </g>
    </g>
</svg>